:::::: DTRG Presents :::::::


:::: Dream House 2011 READNFO R5 LiNE XViD ::::


::Information::


Format : AVI
Format/Info : Audio Video Interleave
File size : 800 MiB
Duration : 1h 21mn
Overall bit rate : 1 379 Kbps
Writing application : VirtualDubMod 1.5.10.2 (build 2540/release)
Writing library : VirtualDubMod build 2540/release

Video
ID : 0
Format : MPEG-4 Visual
Format profile : Advanced Simple@L5
Format settings, BVOP : 1
Format settings, QPel : No
Format settings, GMC : No warppoints
Format settings, Matrix : Default (H.263)
Muxing mode : Packed bitstream
Codec ID : XVID
Codec ID/Hint : XviD
Duration : 1h 21mn
Bit rate : 1 242 Kbps
Width : 624 pixels
Height : 262 pixels
Display aspect ratio : 2.40:1
Frame rate : 25.000 fps
Color space : YUV
Chroma subsampling : 4:2:0
Bit depth : 8 bits
Scan type : Progressive
Compression mode : Lossy
Bits/(Pixel*Frame) : 0.304
Stream size : 720 MiB (90%)
Writing library : XviD 64

Audio
ID : 1
Format : MPEG Audio
Format version : Version 1
Format profile : Layer 3
Codec ID : 55
Codec ID/Hint : MP3
Duration : 1h 21mn
Bit rate mode : Constant
Bit rate : 128 Kbps
Channel(s) : 2 channels
Sampling rate : 44.1 KHz
Compression mode : Lossy
Stream size : 74.2 MiB (9%)
Alignment : Split accross interleaves
Interleave, duration : 40 ms (1.00 video frame)
Interleave, preload duration : 500 ms

 
http://www.imdb.com/title/tt1462041/


::Storyline::


Some say that all houses have memories. For one man, his home is
the place he would kill to forget. A family unknowingly moves into
a home where several grisly murders were committed...only to find
themselves the killer's next target. 


::More Information::


Source Used

Russian DVD5 ......Thanks

Audio.................own

Been way too busy so bit late with this one so went with a smaller sized rip........Any oos? ...maybe you gonna have to down to find out

Sample included ........check it out

Enjoy

Greetz to EMBER,ETRG,BHRG,FYA,CreWSaDe,RemixHD.......and maybe many more

One last thing would like to welcome baker92 to DTRG ...............Look 
forward to working with you bro !



::Poster::

 
http://i.imgur.com/Xnu4L.jpg


::Screens:

 
http://i.imgur.com/S5pJg.png

 
http://i.imgur.com/LUanV.png

 
http://i.imgur.com/39W1U.png


ENJOY!